<svg xmlns="http://www.w3.org/2000/svg" xmlns:xlink="http://www.w3.org/1999/xlink" width="500" zoomAndPan="magnify" viewBox="0 0 375 374.999991" height="500" preserveAspectRatio="xMidYMid meet" version="1.0"><defs><clipPath id="37651a45c3"><path d="M 16.144531 121 L 109 121 L 109 254 L 16.144531 254 Z M 16.144531 121 " clip-rule="nonzero"/></clipPath><clipPath id="8c3396bcc5"><path d="M 266 121 L 358.894531 121 L 358.894531 254 L 266 254 Z M 266 121 " clip-rule="nonzero"/></clipPath><clipPath id="f89124b6ea"><path d="M 116 98.609375 L 259 98.609375 L 259 276.359375 L 116 276.359375 Z M 116 98.609375 " clip-rule="nonzero"/></clipPath></defs><g clip-path="url(#37651a45c3)"><path fill="#1879d8" d="M 97.066406 153.945312 L 61.773438 174.324219 L 73.179688 180.910156 L 108.472656 160.53125 L 108.472656 121.015625 L 16.144531 174.324219 L 97.066406 221.046875 L 97.066406 234.214844 L 16.144531 187.496094 L 16.144531 200.671875 L 108.472656 253.972656 L 108.472656 214.457031 L 38.957031 174.324219 L 97.066406 140.773438 Z M 97.066406 153.945312 " fill-opacity="1" fill-rule="nonzero"/></g><g clip-path="url(#8c3396bcc5)"><path fill="#1879d8" d="M 277.925781 221.046875 L 313.21875 200.671875 L 301.808594 194.082031 L 266.519531 214.457031 L 266.519531 253.972656 L 358.851562 200.671875 L 277.925781 153.945312 L 277.925781 140.777344 L 358.851562 187.496094 L 358.851562 174.324219 L 266.519531 121.015625 L 266.519531 160.53125 L 336.035156 200.671875 L 277.925781 234.214844 Z M 277.925781 221.046875 " fill-opacity="1" fill-rule="nonzero"/></g><g clip-path="url(#f89124b6ea)"><path fill="#1879d8" d="M 129.46875 276.378906 L 225.765625 110.019531 L 238.9375 110.019531 L 142.640625 276.378906 L 155.8125 276.378906 L 258.699219 98.609375 L 219.179688 98.609375 L 116.296875 276.378906 Z M 129.46875 276.378906 " fill-opacity="1" fill-rule="nonzero"/></g></svg>